<?xml version="1.0" encoding="UTF-8"?>
<svg id="Layer_1" data-name="Layer 1" xmlns="http://www.w3.org/2000/svg" xmlns:xlink="http://www.w3.org/1999/xlink" version="1.1" viewBox="0 0 791.5 679.3">
  <defs>
    <style>
      .cls-1 {
        fill: none;
      }

      .cls-1, .cls-2, .cls-3, .cls-4, .cls-5, .cls-6, .cls-7, .cls-8, .cls-9 {
        stroke-width: 0px;
      }

      .cls-2 {
        fill: url(#linear-gradient);
      }

      .cls-3 {
        fill: #271442;
        opacity: 0;
      }

      .cls-4 {
        fill: url(#linear-gradient-4);
      }

      .cls-5 {
        fill: url(#linear-gradient-2);
      }

      .cls-6 {
        fill: url(#linear-gradient-3);
      }

      .cls-7 {
        fill: url(#linear-gradient-7);
      }

      .cls-8 {
        fill: url(#linear-gradient-5);
      }

      .cls-9 {
        fill: url(#linear-gradient-6);
      }
    </style>
    <linearGradient id="linear-gradient" x1="384.4" y1="123.4" x2="408.7" y2="388.9" gradientUnits="userSpaceOnUse">
      <stop offset="0" stop-color="#fff"/>
      <stop offset="1" stop-color="#e9e9ea"/>
    </linearGradient>
    <linearGradient id="linear-gradient-2" x1="158.7" y1="456.8" x2="158.7" y2="543.5" xlink:href="#linear-gradient"/>
    <linearGradient id="linear-gradient-3" x1="259" y1="465.9" x2="259" y2="551.9" xlink:href="#linear-gradient"/>
    <linearGradient id="linear-gradient-4" x1="364" y1="480.5" x2="365" y2="571.8" xlink:href="#linear-gradient"/>
    <linearGradient id="linear-gradient-5" x1="464.5" y1="468.7" x2="464.5" y2="560.6" xlink:href="#linear-gradient"/>
    <linearGradient id="linear-gradient-6" x1="552" y1="475.3" x2="552" y2="534.1" xlink:href="#linear-gradient"/>
    <linearGradient id="linear-gradient-7" x1="630.4" y1="471.3" x2="630.4" y2="562.6" xlink:href="#linear-gradient"/>
  </defs>
  <g>
    <path class="cls-1" d="M402.2,251.6c-21.1-15.6-41-30.3-41-53.9s5.8-25.7,17.6-31.9c9.4-4.9,19.2-5,19.3-5,15.2,0,28.1,8.2,33.6,21.4,4.7,11.3,3.1,24-4.2,35.5-2.2,3.4-4.9,6.8-8,10l-4.9,4.9,12.8,9.6,3.3-3.3c18.5-18.5,24.3-41.9,15.7-62.8-8-19.3-26.5-31.2-48.3-31.2-.5,0-13.2.1-25.9,6.5-12.2,6.1-26.8,19.1-26.8,46.3s25.2,50.2,47.4,66.7c20.1,14.9,39.2,29,39.2,50.3s-5.8,25.7-17.6,31.9c-9.4,4.9-19.2,5-19.3,5-15.2,0-28.1-8.2-33.6-21.4-6.1-14.7-1.5-31.7,12.3-45.5l4.3-4.3-12.8-9.6-2.7,2.7c-18.5,18.5-24.3,41.9-15.7,62.8,8,19.3,26.5,31.2,48.3,31.2.5,0,13.2-.1,25.9-6.5,12.2-6.1,26.8-19.1,26.8-46.3s-23.2-46.5-45.6-63.1Z"/>
    <path class="cls-1" d="M395.3,329.7c8.6,0,15.5-6.9,15.5-15.5s-6.9-15.5-15.5-15.5-15.5,6.9-15.5,15.5,6.9,15.5,15.5,15.5Z"/>
    <path class="cls-1" d="M413.3,198c0-.2,0-.5,0-.7,0-.4-.1-.8-.2-1.1,0-.3-.1-.7-.2-1-.1-.4-.2-.9-.4-1.3-.1-.4-.3-.8-.5-1.2-.1-.2-.2-.5-.3-.7-.3-.6-.6-1.1-.9-1.6,0,0,0,0,0,0-1.1-2.4-4.3-6.9-12.2-7-8.7.4-12.3,3.8-13.7,7.4-1.5,2.4-2.4,5.2-2.4,8.3s1.7,8.2,4.6,11c2.8,2.8,6.7,4.6,11,4.6,8.6,0,15.5-6.9,15.5-15.5s0-.7,0-1.1Z"/>
    <g>
      <path class="cls-2" d="M446.5,254.8c24.7-24.7,32.6-58.2,20.6-87.3-11.3-27.4-38.4-45.1-69.1-45.1-3.1,0-19.2.5-36,8.9-24.9,12.5-39.2,36.7-39.2,66.4s11.2,43.8,25.2,58.5c-.5.4-1,.9-1.4,1.4-24.7,24.7-32.6,58.2-20.6,87.3,11.4,27.4,38.4,45.1,69.1,45.1,3.1,0,19.2-.5,36-8.9,24.9-12.5,39.2-36.7,39.2-66.4s-11.8-43.2-26.2-57.6c.8-.7,1.7-1.4,2.4-2.2ZM447.8,314.6c0,27.1-14.6,40.1-26.8,46.3-12.7,6.4-25.4,6.5-25.9,6.5-21.8,0-40.3-12-48.3-31.2-8.6-20.8-2.8-44.3,15.7-62.8l2.7-2.7,12.8,9.6-4.3,4.3c-13.8,13.8-18.3,30.8-12.3,45.5,5.5,13.2,18.3,21.4,33.6,21.4s9.9-.2,19.3-5c11.8-6.1,17.6-16.5,17.6-31.9s-19-35.4-39.2-50.3c-22.2-16.4-47.4-35.1-47.4-66.7s14.6-40.1,26.8-46.3c12.7-6.4,25.4-6.5,25.9-6.5,21.8,0,40.3,12,48.3,31.2,8.6,20.8,2.8,44.3-15.7,62.8l-3.3,3.3h0l-12.8-9.6h0l4.9-4.9c3.2-3.2,5.9-6.5,8-10,7.3-11.5,8.9-24.2,4.2-35.5-5.5-13.2-18.3-21.4-33.6-21.4s-9.9.2-19.3,5c-11.8,6.1-17.6,16.5-17.6,31.9,0,23.6,19.9,38.3,41,53.9,22.4,16.6,45.6,33.7,45.6,63.1ZM379.8,314.2c0-8.6,6.9-15.5,15.5-15.5s15.5,6.9,15.5,15.5-6.9,15.5-15.5,15.5-15.5-6.9-15.5-15.5ZM397.8,214.6c-4.3,0-8.2-1.7-11-4.6-2.8-2.8-4.6-6.7-4.6-11s.9-5.9,2.4-8.3c1.5-3.6,5-7,13.7-7.4,7.9.1,11.1,4.6,12.2,7,0,0,0,0,0,0,.3.5.7,1.1.9,1.6.1.2.2.5.3.7.2.4.3.8.5,1.2.1.4.3.8.4,1.3,0,.3.2.7.2,1,0,.4.1.7.2,1.1,0,.2,0,.5,0,.7,0,.4,0,.7,0,1.1,0,8.6-7,15.5-15.5,15.5Z"/>
      <path class="cls-1" d="M402.2,251.6c-21.1-15.6-41-30.3-41-53.9s5.8-25.7,17.6-31.9c9.4-4.9,19.2-5,19.3-5,15.2,0,28.1,8.2,33.6,21.4,4.7,11.3,3.1,24-4.2,35.5-2.2,3.4-4.9,6.8-8,10l-4.9,4.9,12.8,9.6,3.3-3.3c18.5-18.5,24.3-41.9,15.7-62.8-8-19.3-26.5-31.2-48.3-31.2-.5,0-13.2.1-25.9,6.5-12.2,6.1-26.8,19.1-26.8,46.3s25.2,50.2,47.4,66.7c20.1,14.9,39.2,29,39.2,50.3s-5.8,25.7-17.6,31.9c-9.4,4.9-19.2,5-19.3,5-15.2,0-28.1-8.2-33.6-21.4-6.1-14.7-1.5-31.7,12.3-45.5l4.3-4.3-12.8-9.6-2.7,2.7c-18.5,18.5-24.3,41.9-15.7,62.8,8,19.3,26.5,31.2,48.3,31.2.5,0,13.2-.1,25.9-6.5,12.2-6.1,26.8-19.1,26.8-46.3s-23.2-46.5-45.6-63.1Z"/>
      <path class="cls-1" d="M410.8,314.2c0-8.6-6.9-15.5-15.5-15.5s-15.5,6.9-15.5,15.5,6.9,15.5,15.5,15.5,15.5-6.9,15.5-15.5Z"/>
      <path class="cls-1" d="M413.3,198c0-.2,0-.5,0-.7,0-.4-.1-.8-.2-1.1,0-.3-.1-.7-.2-1-.1-.4-.2-.9-.4-1.3-.1-.4-.3-.8-.5-1.2-.1-.2-.2-.5-.3-.7-.3-.6-.6-1.1-.9-1.6,0,0,0,0,0,0-1.1-2.4-4.3-6.9-12.2-7-8.7.4-12.3,3.8-13.7,7.4-1.5,2.4-2.4,5.2-2.4,8.3s1.7,8.2,4.6,11c2.8,2.8,6.7,4.6,11,4.6,8.6,0,15.5-6.9,15.5-15.5s0-.7,0-1.1Z"/>
    </g>
  </g>
  <g>
    <path class="cls-1" d="M412.4,193.8c.1.4.3.8.4,1.3-.1-.4-.2-.9-.4-1.3Z"/>
    <path class="cls-1" d="M411.6,192c.1.2.2.5.3.7-.1-.2-.2-.5-.3-.7Z"/>
    <path class="cls-1" d="M410.8,314.2c0-8.6-6.9-15.5-15.5-15.5s-15.5,6.9-15.5,15.5,6.9,15.5,15.5,15.5,15.5-6.9,15.5-15.5Z"/>
    <path class="cls-1" d="M402.2,251.6c-21.1-15.6-41-30.3-41-53.9s5.8-25.7,17.6-31.9c9.4-4.9,19.2-5,19.3-5,15.2,0,28.1,8.2,33.6,21.4,6.1,14.7,1.5,31.7-12.3,45.5l-5.6,5.6,11.2,11.2,5.6-5.6c18.5-18.5,24.3-41.9,15.7-62.8-8-19.3-26.5-31.2-48.3-31.2-.5,0-13.2.1-25.9,6.5-12.2,6.1-26.8,19.1-26.8,46.3s25.2,50.2,47.4,66.7c20.1,14.9,39.2,29,39.2,50.3s-5.8,25.7-17.6,31.9c-9.4,4.9-19.2,5-19.3,5-15.2,0-28.1-8.2-33.6-21.4-6.1-14.7-1.5-31.7,12.3-45.5l5.6-5.6-11.2-11.2-5.6,5.6c-18.5,18.5-24.3,41.9-15.7,62.8,8,19.3,26.5,31.2,48.3,31.2.5,0,13.2-.1,25.9-6.5,12.2-6.1,26.8-19.1,26.8-46.3s-23.2-46.5-45.6-63.1Z"/>
    <path class="cls-1" d="M397.8,183.5c5.4,0,10.1,2.7,12.9,6.8,0,0,0,0,0,0-1.1-2.4-4.3-6.9-12.2-7-8.7.4-12.3,3.8-13.7,7.4,2.8-4.3,7.6-7.2,13.1-7.2Z"/>
    <path class="cls-1" d="M413.1,196.1c0,.4.1.7.2,1.1,0-.4-.1-.8-.2-1.1Z"/>
    <path class="cls-1" d="M397.8,214.5c-4.3,0-8.2-1.7-11-4.5,2.8,2.8,6.7,4.6,11,4.6,8.6,0,15.5-6.9,15.5-15.5s0-.7,0-1.1c0,.3,0,.7,0,1,0,8.6-7,15.5-15.5,15.5Z"/>
  </g>
  <g>
    <path class="cls-5" d="M160.1,473.4c-6.1-1.1-11.8-2.7-16.9-4.6-5.1-1.9-9.5-4.3-13.2-7.3-3.7-2.9-6.6-6.4-8.7-10.4-2.1-4-3.1-8.7-3.1-13.9s1.1-10.3,3.4-14.7c2.2-4.4,5.2-8.2,9-11.4,3.7-3.2,8.1-5.7,13-7.4,5-1.8,10.1-2.6,15.5-2.6s7.5.4,11.2,1.1c3.7.8,7.1,1.9,10.4,3.4,3.3,1.5,6.2,3.4,8.9,5.6,2.7,2.2,4.9,4.9,6.6,7.9.6,1,.9,1.9,1,3,0,1,0,2-.2,3-.2,1-.6,1.9-1.1,2.7-.5.9-1,1.6-1.7,2.2-1.7,1.7-4,2.6-6.8,2.6s-2.1-.1-3.1-.4c-1.1-.3-2.1-.8-3-1.5-1.7-1.5-3.4-2.8-4.9-3.9-1.5-1.1-3.1-2-4.8-2.7-1.7-.7-3.4-1.2-5.4-1.6-1.9-.4-4.2-.5-6.8-.5s-5.6.4-8,1.1c-2.5.7-4.6,1.7-6.5,3.1-1.8,1.3-3.3,2.9-4.3,4.8-1.1,1.9-1.6,3.9-1.6,6.2s.7,4.9,2.1,6.6c1.4,1.7,3.4,3.2,5.8,4.4,2.5,1.2,5.4,2.2,8.8,3,3.4.8,7,1.6,10.9,2.4,4.5,1.1,8.8,2.6,13.1,4.3,4.2,1.7,8,3.9,11.4,6.6,3.3,2.7,6,6,8,9.8,2,3.9,3,8.5,3,13.8s-1.1,10.3-3.3,14.9c-2.2,4.6-5.3,8.6-9.1,12-3.9,3.4-8.5,6.1-13.8,8-5.3,1.9-10.9,2.9-17,2.9s-9.5-.6-13.9-1.9c-4.4-1.2-8.4-2.9-12.1-5.1-3.7-2.1-6.9-4.7-9.6-7.6-2.7-2.9-4.9-6-6.4-9.2-.8-1.7-1.3-3.2-1.4-4.7,0-1.5,0-2.8.5-4,.4-1.2,1.1-2.3,2-3.2.9-.9,1.8-1.7,2.9-2.3,1.7-.9,3.2-1.3,4.7-1.3,3.1,0,6.3,2.1,9.6,6.2,2.7,3.9,6.1,6.9,10.2,9.1,4.1,2.1,8.9,3.2,14.4,3.2s5.3-.4,7.9-1.1c2.6-.7,4.9-1.7,6.9-3.1,2-1.4,3.7-3,4.9-5,1.2-2,1.9-4.2,1.9-6.8s-.6-5.1-1.9-6.8c-1.3-1.8-2.9-3.2-4.9-4.3-2-1.1-4.3-1.9-6.8-2.6-2.5-.6-5-1.2-7.5-1.8Z"/>
    <path class="cls-6" d="M236.8,481.5c0,3.3.6,6.3,1.8,9.1,1.2,2.8,2.8,5.3,4.9,7.4,2.1,2.1,4.5,3.8,7.4,5,2.8,1.2,5.9,1.8,9.2,1.8s6.3-.6,8.9-1.9c2.6-1.2,4.8-2.9,6.7-5.1,1.8-2.1,3.2-4.6,4.2-7.5,1-2.9,1.5-5.9,1.5-9.2v-35.5c0-1.5.3-2.8.9-4.1.6-1.2,1.4-2.3,2.3-3.3,1-.9,2.1-1.7,3.4-2.2,1.3-.5,2.6-.8,4-.8s2.8.3,4,.8c1.2.5,2.3,1.3,3.2,2.2.9.9,1.6,2,2.2,3.3.5,1.2.8,2.6.8,4.1v35.2c0,6.1-1,11.9-3.1,17.3-2.1,5.4-5,10.2-8.7,14.2-3.7,4.1-8.1,7.3-13.3,9.6-5.2,2.4-10.8,3.5-17,3.5s-11.9-1.2-17.2-3.5c-5.3-2.3-10-5.5-13.9-9.5-4-4-7.1-8.7-9.4-14.1-2.3-5.4-3.4-11.1-3.4-17.2v-35.6c0-1.5.3-2.8.8-4.1.5-1.2,1.3-2.3,2.2-3.3.9-.9,2-1.7,3.3-2.2,1.3-.5,2.6-.8,4-.8s2.7.3,4,.8c1.3.5,2.4,1.3,3.4,2.2,1,.9,1.7,2,2.3,3.3.5,1.2.8,2.6.8,4.1v35.7Z"/>
    <path class="cls-4" d="M318.7,480c0-6.3,1.2-12.2,3.6-17.8,2.4-5.5,5.7-10.4,9.9-14.5,4.2-4.2,9-7.4,14.5-9.8,5.5-2.4,11.4-3.6,17.7-3.6s12.3,1.2,17.8,3.6c5.6,2.4,10.4,5.7,14.5,9.8,4.1,4.2,7.4,9,9.7,14.5,2.4,5.5,3.5,11.4,3.5,17.8s-1.2,12.2-3.5,17.7c-2.4,5.6-5.6,10.4-9.7,14.6-4.1,4.2-9,7.4-14.5,9.8-5.6,2.4-11.5,3.6-17.8,3.6s-9-.7-13.2-2c-4.2-1.3-8.1-3.1-11.7-5.5v27.9c0,1.5-.2,3-.7,4.3-.5,1.3-1.2,2.4-2.1,3.4-.9,1-2,1.7-3.2,2.3-1.2.6-2.6.9-4.2.9s-2.8-.3-4.1-.9-2.4-1.3-3.4-2.3c-1-1-1.7-2.1-2.3-3.4-.6-1.3-.9-2.7-.9-4.3v-66.1ZM339.5,480c0,3.4.7,6.6,2,9.6,1.3,3,3.1,5.7,5.4,8,2.3,2.3,4.9,4.1,7.9,5.4,3,1.3,6.2,2,9.7,2s6.7-.7,9.7-2c3-1.3,5.7-3.1,7.9-5.4,2.2-2.3,4-4.9,5.3-8,1.3-3,1.9-6.2,1.9-9.6s-.6-6.7-1.9-9.7c-1.3-3-3-5.7-5.3-7.9-2.2-2.2-4.9-4-7.9-5.3-3-1.3-6.3-2-9.7-2s-6.6.7-9.6,2c-3,1.3-5.7,3.1-8,5.3-2.3,2.2-4.1,4.9-5.4,7.9-1.3,3-2,6.3-2,9.7Z"/>
    <path class="cls-8" d="M441.7,489.3c.8,2.4,2,4.5,3.5,6.5,1.5,1.9,3.2,3.6,5.2,5,2,1.4,4.2,2.4,6.5,3.2,2.4.7,4.9,1.1,7.5,1.1,6.6,0,11.8-1.7,15.5-5.2,1.3-.9,2.5-1.5,3.7-2,1.2-.4,2.4-.6,3.4-.6,1.8,0,3.4.5,4.8,1.4,1.4.9,2.6,2.1,3.4,3.6.6,1,1.1,2.1,1.4,3.3.3,1.2.4,2.4.2,3.6-.2,1.2-.5,2.4-1.1,3.6-.6,1.2-1.5,2.3-2.7,3.2-1.4,1.3-3,2.5-4.8,3.7-1.8,1.2-3.9,2.2-6.2,3.1-2.3.9-5,1.6-7.9,2.2-2.9.5-6.2.8-9.8.8-6.3,0-12.3-1.2-17.8-3.6-5.6-2.4-10.4-5.7-14.6-9.8-4.2-4.2-7.4-9-9.9-14.5-2.4-5.5-3.6-11.4-3.6-17.8s1.2-12.3,3.6-17.8c2.4-5.6,5.7-10.4,9.9-14.5,4.2-4.1,9-7.4,14.6-9.8,5.6-2.4,11.5-3.6,17.8-3.6s12.2,1.2,17.7,3.5c5.5,2.4,10.4,5.6,14.6,9.6,4.2,4.1,7.5,8.8,10,14.3,2.5,5.5,3.7,11.4,3.8,17.6,0,2.9-.9,5.3-2.8,7.1-1.9,1.8-4.4,2.7-7.4,2.7h-58.4ZM489,472c-.7-2.6-1.8-5-3.3-7.1-1.5-2.1-3.3-3.9-5.4-5.4-2.1-1.5-4.5-2.6-7.1-3.4-2.6-.8-5.4-1.1-8.3-1.1s-5.7.4-8.3,1.2c-2.6.8-4.9,1.9-7,3.4-2.1,1.5-3.9,3.3-5.3,5.4-1.5,2.1-2.6,4.4-3.3,6.9h48Z"/>
    <path class="cls-9" d="M543.4,514.3c0,1.4-.3,2.7-.8,4-.5,1.3-1.2,2.4-2.2,3.3-.9.9-2,1.6-3.2,2.2-1.2.5-2.5.8-3.9.8s-2.9-.3-4.2-.8c-1.3-.5-2.4-1.3-3.4-2.2-1-.9-1.7-2-2.3-3.3-.6-1.3-.9-2.6-.9-4v-30.9c0-6.6,1.3-12.8,3.8-18.6,2.5-5.8,6-10.9,10.3-15.2,4.3-4.3,9.4-7.8,15.2-10.3,5.8-2.5,12-3.8,18.5-3.8h.2c3.4,0,6.1,1,8,2.9,1.9,1.9,2.8,4.4,2.8,7.4s-.3,2.8-.9,4.1c-.6,1.3-1.4,2.4-2.3,3.3-1,.9-2.1,1.7-3.4,2.2-1.3.5-2.7.8-4.2.8h-.2c-3.6,0-7.1.7-10.4,2.1-3.3,1.4-6.1,3.3-8.6,5.7-2.4,2.4-4.4,5.3-5.8,8.5s-2.2,6.7-2.2,10.4v31.2Z"/>
    <path class="cls-7" d="M584.8,480c0-6.3,1.2-12.2,3.6-17.8,2.4-5.5,5.7-10.4,9.9-14.5,4.2-4.2,9-7.4,14.5-9.8,5.5-2.4,11.4-3.6,17.7-3.6s12.3,1.2,17.8,3.6c5.6,2.4,10.4,5.7,14.5,9.8,4.1,4.2,7.4,9,9.7,14.5,2.4,5.5,3.5,11.4,3.5,17.8s-1.2,12.2-3.5,17.7c-2.4,5.6-5.6,10.4-9.7,14.6-4.1,4.2-9,7.4-14.5,9.8-5.6,2.4-11.5,3.6-17.8,3.6s-12.2-1.2-17.7-3.6c-5.5-2.4-10.4-5.7-14.5-9.8-4.2-4.2-7.4-9-9.9-14.6-2.4-5.6-3.6-11.5-3.6-17.7ZM605.6,480c0,3.4.7,6.6,2,9.6,1.3,3,3.1,5.7,5.4,8,2.3,2.3,4.9,4.1,7.9,5.4,3,1.3,6.2,2,9.7,2s6.7-.7,9.7-2c3-1.3,5.7-3.1,7.9-5.4,2.2-2.3,4-4.9,5.3-8,1.3-3,1.9-6.2,1.9-9.6s-.6-6.7-1.9-9.7c-1.3-3-3-5.7-5.3-7.9-2.2-2.2-4.9-4-7.9-5.3-3-1.3-6.3-2-9.7-2s-6.6.7-9.6,2c-3,1.3-5.7,3.1-8,5.3-2.3,2.2-4.1,4.9-5.4,7.9-1.3,3-2,6.3-2,9.7Z"/>
  </g>
  <path class="cls-3" d="M365.2,270.7c-6.2-4.8-12-9.1-17.2-14.6,0,0-7.5,6.5-12.7,14.9h0c5,5.3,10.9,10.2,17,15,0,0,1.4-2.4,3.6-5.2,2.7-3.6,6.6-7.4,9.1-10"/>
  <path class="cls-3" d="M378,280.3c10.6,7.8,20.2,14.8,26,21,0,0-10.8-7.7-20.7,3-1.9,2.1-2.8,5-2.8,5,0,0-7.9-8.1-15.5-13.8,0,0,1.3-2.2,3.7-5.3,2.3-3,5.9-6.7,9.3-9.9"/>
  <path class="cls-3" d="M427.4,242.1c6.2,4.8,11.6,9.4,16.7,14.9,0,0,8-6.9,13.2-14.9l-.2-.3c-5-5.3-10.6-10-16.7-14.7,0,0-1.5,2.3-3.7,5.1-2.7,3.6-6.9,7.6-9.4,10.2"/>
  <path class="cls-3" d="M414.6,232.6c-10.6-7.8-20.2-14.8-26-21,0,0,10.5,8.2,21-2.5,2-2,2.9-5,2.9-5,0,0,7.4,7.8,15,13.5,0,0-1.4,2.6-3.9,5.6-2.5,2.9-5.6,6.3-9,9.5"/>
</svg>