<svg xmlns="http://www.w3.org/2000/svg" viewBox="320 120 160 270" width="160" height="270">
  <defs>
    <linearGradient id="sg" x1="0%" y1="0%" x2="100%" y2="100%">
      <stop offset="0%" stop-color="#E91E8F"/>
      <stop offset="100%" stop-color="#B547D9"/>
    </linearGradient>
  </defs>
  <path fill="url(#sg)" d="M446.5,254.8c24.7-24.7,32.6-58.2,20.6-87.3-11.3-27.4-38.4-45.1-69.1-45.1-3.1,0-19.2.5-36,8.9-24.9,12.5-39.2,36.7-39.2,66.4s11.2,43.8,25.2,58.5c-.5.4-1,.9-1.4,1.4-24.7,24.7-32.6,58.2-20.6,87.3,11.4,27.4,38.4,45.1,69.1,45.1,3.1,0,19.2-.5,36-8.9,24.9-12.5,39.2-36.7,39.2-66.4s-11.8-43.2-26.2-57.6c.8-.7,1.7-1.4,2.4-2.2ZM447.8,314.6c0,27.1-14.6,40.1-26.8,46.3-12.7,6.4-25.4,6.5-25.9,6.5-21.8,0-40.3-12-48.3-31.2-8.6-20.8-2.8-44.3,15.7-62.8l2.7-2.7,12.8,9.6-4.3,4.3c-13.8,13.8-18.3,30.8-12.3,45.5,5.5,13.2,18.3,21.4,33.6,21.4s9.9-.2,19.3-5c11.8-6.1,17.6-16.5,17.6-31.9s-19-35.4-39.2-50.3c-22.2-16.4-47.4-35.1-47.4-66.7s14.6-40.1,26.8-46.3c12.7-6.4,25.4-6.5,25.9-6.5,21.8,0,40.3,12,48.3,31.2,8.6,20.8,2.8,44.3-15.7,62.8l-3.3,3.3h0l-12.8-9.6h0l4.9-4.9c3.2-3.2,5.9-6.5,8-10,7.3-11.5,8.9-24.2,4.2-35.5-5.5-13.2-18.3-21.4-33.6-21.4s-9.9.2-19.3,5c-11.8,6.1-17.6,16.5-17.6,31.9,0,23.6,19.9,38.3,41,53.9,22.4,16.6,45.6,33.7,45.6,63.1ZM379.8,314.2c0-8.6,6.9-15.5,15.5-15.5s15.5,6.9,15.5,15.5-6.9,15.5-15.5,15.5-15.5-6.9-15.5-15.5ZM397.8,214.6c-4.3,0-8.2-1.7-11-4.6-2.8-2.8-4.6-6.7-4.6-11s.9-5.9,2.4-8.3c1.5-3.6,5-7,13.7-7.4,7.9.1,11.1,4.6,12.2,7,.3.5.7,1.1.9,1.6.1.2.2.5.3.7.2.4.3.8.5,1.2.1.4.3.8.4,1.3,0,.3.2.7.2,1,0,.4.1.7.2,1.1,0,.2,0,.5,0,.7,0,.4,0,.7,0,1.1,0,8.6-7,15.5-15.5,15.5Z"/>
</svg>
